<svg xmlns="http://www.w3.org/2000/svg" xmlns:xlink="http://www.w3.org/1999/xlink" width="1080" zoomAndPan="magnify" viewBox="0 0 810 1012.49997" height="1350" preserveAspectRatio="xMidYMid meet" version="1.0"><defs><g/><clipPath id="4232d815bd"><path d="M 0.199219 0 L 809.800781 0 L 809.800781 1012 L 0.199219 1012 Z M 0.199219 0 " clip-rule="nonzero"/></clipPath><clipPath id="e1eb5f5b3b"><rect x="0" width="389" y="0" height="239"/></clipPath></defs><g clip-path="url(#4232d815bd)"><path fill="#ffffff" d="M 0.199219 0 L 809.800781 0 L 809.800781 1012 L 0.199219 1012 Z M 0.199219 0 " fill-opacity="1" fill-rule="nonzero"/><path fill="#c9a97a" d="M 0.199219 0 L 809.800781 0 L 809.800781 1012 L 0.199219 1012 Z M 0.199219 0 " fill-opacity="1" fill-rule="nonzero"/></g><g transform="matrix(1, 0, 0, 1, 214, 372)"><g clip-path="url(#e1eb5f5b3b)"><g fill="#ffffff" fill-opacity="1"><g transform="translate(0.744528, 159.741833)"><g><path d="M 91.90625 -84.046875 C 91.90625 -81.035156 90.953125 -78.578125 89.046875 -76.671875 C 87.148438 -74.765625 84.769531 -73.8125 81.90625 -73.8125 C 78.570312 -73.8125 76.070312 -75.039062 74.40625 -77.5 C 72.738281 -79.957031 71.828125 -82.773438 71.671875 -85.953125 C 71.515625 -88.972656 70.878906 -91.15625 69.765625 -92.5 C 68.648438 -93.851562 66.507812 -94.53125 63.34375 -94.53125 C 59.375 -94.53125 56.238281 -93.578125 53.9375 -91.671875 C 51.632812 -89.765625 50.484375 -86.988281 50.484375 -83.34375 C 50.484375 -77.945312 53.894531 -71.910156 60.71875 -65.234375 C 67.382812 -58.734375 72.34375 -52.78125 75.59375 -47.375 C 78.851562 -41.976562 80.484375 -36.03125 80.484375 -29.53125 C 80.484375 -24.445312 79.332031 -19.921875 77.03125 -15.953125 C 74.726562 -11.984375 71.710938 -8.566406 67.984375 -5.703125 C 64.253906 -2.847656 60.046875 -0.667969 55.359375 0.828125 C 50.679688 2.335938 45.957031 3.09375 41.1875 3.09375 C 37.21875 3.09375 33.328125 2.613281 29.515625 1.65625 C 25.710938 0.707031 22.300781 -0.710938 19.28125 -2.609375 C 16.269531 -4.515625 13.8125 -6.894531 11.90625 -9.75 C 10 -12.613281 9.046875 -15.953125 9.046875 -19.765625 C 9.046875 -22.941406 9.957031 -25.597656 11.78125 -27.734375 C 13.613281 -29.878906 16.195312 -30.953125 19.53125 -30.953125 C 22.382812 -30.953125 24.921875 -30.078125 27.140625 -28.328125 C 29.367188 -26.585938 30.484375 -24.207031 30.484375 -21.1875 C 30.484375 -19.757812 30.398438 -18.289062 30.234375 -16.78125 C 30.078125 -15.28125 30 -13.894531 30 -12.625 C 30 -10.082031 31.03125 -8.175781 33.09375 -6.90625 C 35.15625 -5.632812 37.378906 -5 39.765625 -5 C 43.578125 -5 46.910156 -6.425781 49.765625 -9.28125 C 52.617188 -12.144531 54.046875 -15.640625 54.046875 -19.765625 C 54.046875 -21.503906 53.847656 -23.128906 53.453125 -24.640625 C 53.054688 -26.148438 52.34375 -27.738281 51.3125 -29.40625 C 50.28125 -31.070312 48.929688 -32.894531 47.265625 -34.875 C 45.597656 -36.863281 43.492188 -39.285156 40.953125 -42.140625 C 35.867188 -47.859375 31.976562 -53.132812 29.28125 -57.96875 C 26.582031 -62.8125 25.234375 -67.457031 25.234375 -71.90625 C 25.234375 -76.832031 26.304688 -81.238281 28.453125 -85.125 C 30.597656 -89.007812 33.457031 -92.222656 37.03125 -94.765625 C 40.601562 -97.304688 44.6875 -99.25 49.28125 -100.59375 C 53.882812 -101.945312 58.570312 -102.625 63.34375 -102.625 C 71.4375 -102.625 78.21875 -101.035156 83.6875 -97.859375 C 89.164062 -94.679688 91.90625 -90.078125 91.90625 -84.046875 Z M 91.90625 -84.046875 "/></g></g></g><g fill="#ffffff" fill-opacity="1"><g transform="translate(72.177191, 159.741833)"><g><path d="M 109.296875 -82.625 C 109.296875 -73.570312 104.410156 -65.671875 94.640625 -58.921875 C 84.878906 -52.179688 68.8125 -46.351562 46.4375 -41.4375 C 46.113281 -39.207031 45.789062 -36.941406 45.46875 -34.640625 C 45.15625 -32.335938 45 -30.15625 45 -28.09375 C 45 -22.539062 46.425781 -18.132812 49.28125 -14.875 C 52.144531 -11.625 55.796875 -10 60.234375 -10 C 65.003906 -10 69.847656 -11.664062 74.765625 -15 C 79.679688 -18.332031 85.472656 -24.128906 92.140625 -32.390625 L 98.09375 -27.859375 C 91.425781 -17.859375 84.164062 -10.195312 76.3125 -4.875 C 68.457031 0.433594 60.164062 3.09375 51.4375 3.09375 C 40.476562 3.09375 32.019531 -0.0390625 26.0625 -6.3125 C 20.113281 -12.582031 17.140625 -21.273438 17.140625 -32.390625 C 17.140625 -42.066406 18.84375 -51.148438 22.25 -59.640625 C 25.664062 -68.140625 30.234375 -75.5625 35.953125 -81.90625 C 41.671875 -88.257812 48.296875 -93.300781 55.828125 -97.03125 C 63.367188 -100.757812 71.269531 -102.625 79.53125 -102.625 C 83.34375 -102.625 87.070312 -102.226562 90.71875 -101.4375 C 94.375 -100.644531 97.550781 -99.414062 100.25 -97.75 C 102.945312 -96.082031 105.128906 -94.015625 106.796875 -91.546875 C 108.460938 -89.085938 109.296875 -86.113281 109.296875 -82.625 Z M 48.578125 -49.046875 C 53.972656 -50.796875 59.007812 -52.941406 63.6875 -55.484375 C 68.375 -58.023438 72.421875 -60.84375 75.828125 -63.9375 C 79.242188 -67.03125 81.90625 -70.398438 83.8125 -74.046875 C 85.71875 -77.703125 86.671875 -81.515625 86.671875 -85.484375 C 86.671875 -88.335938 85.914062 -90.71875 84.40625 -92.625 C 82.894531 -94.53125 80.710938 -95.484375 77.859375 -95.484375 C 71.828125 -95.484375 66.347656 -91.429688 61.421875 -83.328125 C 56.503906 -75.234375 52.222656 -63.804688 48.578125 -49.046875 Z M 48.578125 -49.046875 "/></g></g></g><g fill="#ffffff" fill-opacity="1"><g transform="translate(162.896682, 159.741833)"><g><path d="M 109.296875 -82.625 C 109.296875 -73.570312 104.410156 -65.671875 94.640625 -58.921875 C 84.878906 -52.179688 68.8125 -46.351562 46.4375 -41.4375 C 46.113281 -39.207031 45.789062 -36.941406 45.46875 -34.640625 C 45.15625 -32.335938 45 -30.15625 45 -28.09375 C 45 -22.539062 46.425781 -18.132812 49.28125 -14.875 C 52.144531 -11.625 55.796875 -10 60.234375 -10 C 65.003906 -10 69.847656 -11.664062 74.765625 -15 C 79.679688 -18.332031 85.472656 -24.128906 92.140625 -32.390625 L 98.09375 -27.859375 C 91.425781 -17.859375 84.164062 -10.195312 76.3125 -4.875 C 68.457031 0.433594 60.164062 3.09375 51.4375 3.09375 C 40.476562 3.09375 32.019531 -0.0390625 26.0625 -6.3125 C 20.113281 -12.582031 17.140625 -21.273438 17.140625 -32.390625 C 17.140625 -42.066406 18.84375 -51.148438 22.25 -59.640625 C 25.664062 -68.140625 30.234375 -75.5625 35.953125 -81.90625 C 41.671875 -88.257812 48.296875 -93.300781 55.828125 -97.03125 C 63.367188 -100.757812 71.269531 -102.625 79.53125 -102.625 C 83.34375 -102.625 87.070312 -102.226562 90.71875 -101.4375 C 94.375 -100.644531 97.550781 -99.414062 100.25 -97.75 C 102.945312 -96.082031 105.128906 -94.015625 106.796875 -91.546875 C 108.460938 -89.085938 109.296875 -86.113281 109.296875 -82.625 Z M 48.578125 -49.046875 C 53.972656 -50.796875 59.007812 -52.941406 63.6875 -55.484375 C 68.375 -58.023438 72.421875 -60.84375 75.828125 -63.9375 C 79.242188 -67.03125 81.90625 -70.398438 83.8125 -74.046875 C 85.71875 -77.703125 86.671875 -81.515625 86.671875 -85.484375 C 86.671875 -88.335938 85.914062 -90.71875 84.40625 -92.625 C 82.894531 -94.53125 80.710938 -95.484375 77.859375 -95.484375 C 71.828125 -95.484375 66.347656 -91.429688 61.421875 -83.328125 C 56.503906 -75.234375 52.222656 -63.804688 48.578125 -49.046875 Z M 48.578125 -49.046875 "/></g></g></g><g fill="#ffffff" fill-opacity="1"><g transform="translate(253.616174, 159.741833)"><g><path d="M 64.296875 -85.953125 C 64.296875 -82.617188 64.09375 -79.363281 63.6875 -76.1875 C 63.289062 -73.019531 62.859375 -70.320312 62.390625 -68.09375 L 62.859375 -67.625 C 68.253906 -79.050781 74.601562 -87.738281 81.90625 -93.6875 C 89.207031 -99.644531 97.144531 -102.625 105.71875 -102.625 C 111.75 -102.625 116.46875 -101.035156 119.875 -97.859375 C 123.289062 -94.679688 125 -90.078125 125 -84.046875 C 125 -78.015625 123.175781 -69.285156 119.53125 -57.859375 L 114.296875 -41.90625 C 113.972656 -41.269531 113.414062 -39.878906 112.625 -37.734375 C 111.832031 -35.597656 111.035156 -33.21875 110.234375 -30.59375 C 109.441406 -27.976562 108.6875 -25.4375 107.96875 -22.96875 C 107.257812 -20.507812 106.90625 -18.726562 106.90625 -17.625 C 106.90625 -16.507812 107.257812 -15.351562 107.96875 -14.15625 C 108.6875 -12.96875 109.679688 -12.375 110.953125 -12.375 C 115.085938 -12.375 120.882812 -19.046875 128.34375 -32.390625 L 133.109375 -29.765625 C 127.390625 -18.171875 121.515625 -9.796875 115.484375 -4.640625 C 109.453125 0.511719 103.179688 3.09375 96.671875 3.09375 C 91.585938 3.09375 87.457031 1.507812 84.28125 -1.65625 C 81.113281 -4.832031 79.53125 -8.882812 79.53125 -13.8125 C 79.53125 -18.09375 80.800781 -24.519531 83.34375 -33.09375 C 84.445312 -37.0625 85.875 -41.546875 87.625 -46.546875 C 89.375 -51.546875 91 -56.425781 92.5 -61.1875 C 94.007812 -65.957031 95.316406 -70.285156 96.421875 -74.171875 C 97.535156 -78.054688 98.09375 -80.796875 98.09375 -82.390625 C 98.09375 -83.972656 97.617188 -85.359375 96.671875 -86.546875 C 95.722656 -87.742188 94.453125 -88.34375 92.859375 -88.34375 C 86.671875 -88.34375 80.640625 -84.332031 74.765625 -76.3125 C 68.890625 -68.300781 63.253906 -56.59375 57.859375 -41.1875 L 43.578125 0 L 18.578125 0 C 23.015625 -16.820312 26.582031 -29.957031 29.28125 -39.40625 C 31.976562 -48.851562 33.882812 -55.71875 35 -60 C 36.269531 -64.445312 37.179688 -68.414062 37.734375 -71.90625 C 38.296875 -75.394531 38.578125 -78.175781 38.578125 -80.25 C 38.578125 -82.144531 38.175781 -83.726562 37.375 -85 C 36.582031 -86.269531 35.472656 -86.90625 34.046875 -86.90625 C 31.828125 -86.90625 29.367188 -85.160156 26.671875 -81.671875 C 23.972656 -78.179688 21.113281 -73.257812 18.09375 -66.90625 L 13.328125 -68.8125 C 22.691406 -91.351562 34.597656 -102.625 49.046875 -102.625 C 59.210938 -102.625 64.296875 -97.066406 64.296875 -85.953125 Z M 64.296875 -85.953125 "/></g></g></g></g></g><path stroke-linecap="butt" transform="matrix(0.74963, -0.000000000000000651, 0.000000000000000651, 0.74963, 517.721918, 401.874259)" fill="none" stroke-linejoin="miter" d="M 0.0009849 3.00247 L 133.613819 3.00247 " stroke="#000000" stroke-width="6" stroke-opacity="1" stroke-miterlimit="4"/><path stroke-linecap="butt" transform="matrix(0.74963, -0.000000000000000651, 0.000000000000000651, 0.74963, 211.400251, 570.908117)" fill="none" stroke-linejoin="miter" d="M -0.00241966 2.998991 L 133.615625 2.998991 " stroke="#000000" stroke-width="6" stroke-opacity="1" stroke-miterlimit="4"/></svg>