<svg xmlns="http://www.w3.org/2000/svg" xmlns:xlink="http://www.w3.org/1999/xlink" width="1080" zoomAndPan="magnify" viewBox="0 0 810 1012.49997" height="1350" preserveAspectRatio="xMidYMid meet" version="1.0"><defs><g/><clipPath id="eeaafe3f2a"><path d="M 0.199219 0 L 809.800781 0 L 809.800781 1012 L 0.199219 1012 Z M 0.199219 0 " clip-rule="nonzero"/></clipPath><clipPath id="e37640de02"><rect x="0" width="415" y="0" height="255"/></clipPath><clipPath id="03771d799f"><path d="M 318 0.476562 L 429.335938 0.476562 L 429.335938 6 L 318 6 Z M 318 0.476562 " clip-rule="nonzero"/></clipPath><clipPath id="795acce009"><path d="M 0.664062 164 L 112 164 L 112 168.875 L 0.664062 168.875 Z M 0.664062 164 " clip-rule="nonzero"/></clipPath><clipPath id="b5fb5c93bc"><rect x="0" width="430" y="0" height="169"/></clipPath></defs><g clip-path="url(#eeaafe3f2a)"><path fill="#ffffff" d="M 0.199219 0 L 809.800781 0 L 809.800781 1012 L 0.199219 1012 Z M 0.199219 0 " fill-opacity="1" fill-rule="nonzero"/><path fill="#000000" d="M 0.199219 0 L 809.800781 0 L 809.800781 1012 L 0.199219 1012 Z M 0.199219 0 " fill-opacity="1" fill-rule="nonzero"/></g><g transform="matrix(1, 0, 0, 1, 201, 379)"><g clip-path="url(#e37640de02)"><g fill="#ffffff" fill-opacity="1"><g transform="translate(0.439558, 170.111333)"><g><path d="M 98.34375 -89.9375 C 98.34375 -86.707031 97.320312 -84.070312 95.28125 -82.03125 C 93.238281 -80 90.691406 -78.984375 87.640625 -78.984375 C 84.078125 -78.984375 81.398438 -80.296875 79.609375 -82.921875 C 77.828125 -85.554688 76.851562 -88.570312 76.6875 -91.96875 C 76.507812 -95.195312 75.828125 -97.53125 74.640625 -98.96875 C 73.453125 -100.414062 71.160156 -101.140625 67.765625 -101.140625 C 63.523438 -101.140625 60.171875 -100.117188 57.703125 -98.078125 C 55.242188 -96.046875 54.015625 -93.078125 54.015625 -89.171875 C 54.015625 -83.390625 57.664062 -76.9375 64.96875 -69.8125 C 72.101562 -62.84375 77.410156 -56.46875 80.890625 -50.6875 C 84.367188 -44.914062 86.109375 -38.550781 86.109375 -31.59375 C 86.109375 -26.15625 84.875 -21.3125 82.40625 -17.0625 C 79.945312 -12.820312 76.722656 -9.171875 72.734375 -6.109375 C 68.742188 -3.054688 64.242188 -0.722656 59.234375 0.890625 C 54.222656 2.503906 49.171875 3.3125 44.078125 3.3125 C 39.828125 3.3125 35.660156 2.800781 31.578125 1.78125 C 27.503906 0.757812 23.851562 -0.765625 20.625 -2.796875 C 17.40625 -4.835938 14.773438 -7.382812 12.734375 -10.4375 C 10.703125 -13.5 9.6875 -17.066406 9.6875 -21.140625 C 9.6875 -24.535156 10.660156 -27.378906 12.609375 -29.671875 C 14.566406 -31.972656 17.328125 -33.125 20.890625 -33.125 C 23.941406 -33.125 26.65625 -32.1875 29.03125 -30.3125 C 31.414062 -28.445312 32.609375 -25.898438 32.609375 -22.671875 C 32.609375 -21.140625 32.519531 -19.566406 32.34375 -17.953125 C 32.175781 -16.347656 32.09375 -14.863281 32.09375 -13.5 C 32.09375 -10.78125 33.195312 -8.738281 35.40625 -7.375 C 37.613281 -6.019531 39.992188 -5.34375 42.546875 -5.34375 C 46.617188 -5.34375 50.179688 -6.867188 53.234375 -9.921875 C 56.296875 -12.984375 57.828125 -16.722656 57.828125 -21.140625 C 57.828125 -23.015625 57.613281 -24.753906 57.1875 -26.359375 C 56.769531 -27.972656 56.007812 -29.671875 54.90625 -31.453125 C 53.800781 -33.242188 52.351562 -35.195312 50.5625 -37.3125 C 48.78125 -39.4375 46.53125 -42.03125 43.8125 -45.09375 C 38.382812 -51.207031 34.222656 -56.851562 31.328125 -62.03125 C 28.441406 -67.21875 27 -72.1875 27 -76.9375 C 27 -82.207031 28.144531 -86.921875 30.4375 -91.078125 C 32.738281 -95.242188 35.796875 -98.679688 39.609375 -101.390625 C 43.429688 -104.109375 47.804688 -106.1875 52.734375 -107.625 C 57.660156 -109.070312 62.671875 -109.796875 67.765625 -109.796875 C 76.429688 -109.796875 83.691406 -108.097656 89.546875 -104.703125 C 95.410156 -101.304688 98.34375 -96.382812 98.34375 -89.9375 Z M 98.34375 -89.9375 "/></g></g></g><g fill="#ffffff" fill-opacity="1"><g transform="translate(76.867666, 170.111333)"><g><path d="M 116.9375 -88.40625 C 116.9375 -78.71875 111.710938 -70.265625 101.265625 -63.046875 C 90.816406 -55.835938 73.617188 -49.597656 49.671875 -44.328125 C 49.335938 -41.953125 49 -39.53125 48.65625 -37.0625 C 48.320312 -34.601562 48.15625 -32.269531 48.15625 -30.0625 C 48.15625 -24.113281 49.679688 -19.398438 52.734375 -15.921875 C 55.796875 -12.441406 59.703125 -10.703125 64.453125 -10.703125 C 69.546875 -10.703125 74.722656 -12.484375 79.984375 -16.046875 C 85.253906 -19.617188 91.457031 -25.816406 98.59375 -34.640625 L 104.96875 -29.8125 C 97.832031 -19.101562 90.0625 -10.90625 81.65625 -5.21875 C 73.25 0.464844 64.375 3.3125 55.03125 3.3125 C 43.3125 3.3125 34.265625 -0.0390625 27.890625 -6.75 C 21.523438 -13.457031 18.34375 -22.753906 18.34375 -34.640625 C 18.34375 -45.003906 20.164062 -54.726562 23.8125 -63.8125 C 27.46875 -72.90625 32.351562 -80.847656 38.46875 -87.640625 C 44.582031 -94.429688 51.671875 -99.820312 59.734375 -103.8125 C 67.804688 -107.800781 76.257812 -109.796875 85.09375 -109.796875 C 89.164062 -109.796875 93.15625 -109.367188 97.0625 -108.515625 C 100.96875 -107.671875 104.363281 -106.359375 107.25 -104.578125 C 110.144531 -102.796875 112.484375 -100.585938 114.265625 -97.953125 C 116.046875 -95.328125 116.9375 -92.144531 116.9375 -88.40625 Z M 51.96875 -52.484375 C 57.75 -54.347656 63.144531 -56.640625 68.15625 -59.359375 C 73.164062 -62.078125 77.492188 -65.09375 81.140625 -68.40625 C 84.796875 -71.71875 87.640625 -75.328125 89.671875 -79.234375 C 91.710938 -83.140625 92.734375 -87.210938 92.734375 -91.453125 C 92.734375 -94.515625 91.925781 -97.0625 90.3125 -99.09375 C 88.695312 -101.132812 86.363281 -102.15625 83.3125 -102.15625 C 76.851562 -102.15625 70.988281 -97.820312 65.71875 -89.15625 C 60.457031 -80.5 55.875 -68.273438 51.96875 -52.484375 Z M 51.96875 -52.484375 "/></g></g></g><g fill="#ffffff" fill-opacity="1"><g transform="translate(173.931373, 170.111333)"><g><path d="M 116.9375 -88.40625 C 116.9375 -78.71875 111.710938 -70.265625 101.265625 -63.046875 C 90.816406 -55.835938 73.617188 -49.597656 49.671875 -44.328125 C 49.335938 -41.953125 49 -39.53125 48.65625 -37.0625 C 48.320312 -34.601562 48.15625 -32.269531 48.15625 -30.0625 C 48.15625 -24.113281 49.679688 -19.398438 52.734375 -15.921875 C 55.796875 -12.441406 59.703125 -10.703125 64.453125 -10.703125 C 69.546875 -10.703125 74.722656 -12.484375 79.984375 -16.046875 C 85.253906 -19.617188 91.457031 -25.816406 98.59375 -34.640625 L 104.96875 -29.8125 C 97.832031 -19.101562 90.0625 -10.90625 81.65625 -5.21875 C 73.25 0.464844 64.375 3.3125 55.03125 3.3125 C 43.3125 3.3125 34.265625 -0.0390625 27.890625 -6.75 C 21.523438 -13.457031 18.34375 -22.753906 18.34375 -34.640625 C 18.34375 -45.003906 20.164062 -54.726562 23.8125 -63.8125 C 27.46875 -72.90625 32.351562 -80.847656 38.46875 -87.640625 C 44.582031 -94.429688 51.671875 -99.820312 59.734375 -103.8125 C 67.804688 -107.800781 76.257812 -109.796875 85.09375 -109.796875 C 89.164062 -109.796875 93.15625 -109.367188 97.0625 -108.515625 C 100.96875 -107.671875 104.363281 -106.359375 107.25 -104.578125 C 110.144531 -102.796875 112.484375 -100.585938 114.265625 -97.953125 C 116.046875 -95.328125 116.9375 -92.144531 116.9375 -88.40625 Z M 51.96875 -52.484375 C 57.75 -54.347656 63.144531 -56.640625 68.15625 -59.359375 C 73.164062 -62.078125 77.492188 -65.09375 81.140625 -68.40625 C 84.796875 -71.71875 87.640625 -75.328125 89.671875 -79.234375 C 91.710938 -83.140625 92.734375 -87.210938 92.734375 -91.453125 C 92.734375 -94.515625 91.925781 -97.0625 90.3125 -99.09375 C 88.695312 -101.132812 86.363281 -102.15625 83.3125 -102.15625 C 76.851562 -102.15625 70.988281 -97.820312 65.71875 -89.15625 C 60.457031 -80.5 55.875 -68.273438 51.96875 -52.484375 Z M 51.96875 -52.484375 "/></g></g></g><g fill="#ffffff" fill-opacity="1"><g transform="translate(270.99508, 170.111333)"><g><path d="M 68.78125 -91.96875 C 68.78125 -88.40625 68.566406 -84.921875 68.140625 -81.515625 C 67.722656 -78.117188 67.257812 -75.234375 66.75 -72.859375 L 67.265625 -72.359375 C 73.035156 -84.585938 79.828125 -93.882812 87.640625 -100.25 C 95.453125 -106.613281 103.941406 -109.796875 113.109375 -109.796875 C 119.566406 -109.796875 124.617188 -108.097656 128.265625 -104.703125 C 131.921875 -101.304688 133.75 -96.382812 133.75 -89.9375 C 133.75 -83.476562 131.796875 -74.132812 127.890625 -61.90625 L 122.28125 -44.84375 C 121.945312 -44.15625 121.351562 -42.664062 120.5 -40.375 C 119.65625 -38.082031 118.804688 -35.535156 117.953125 -32.734375 C 117.109375 -29.929688 116.300781 -27.210938 115.53125 -24.578125 C 114.769531 -21.953125 114.390625 -20.046875 114.390625 -18.859375 C 114.390625 -17.660156 114.769531 -16.425781 115.53125 -15.15625 C 116.300781 -13.882812 117.363281 -13.25 118.71875 -13.25 C 123.132812 -13.25 129.332031 -20.378906 137.3125 -34.640625 L 142.40625 -31.84375 C 136.300781 -19.445312 130.019531 -10.488281 123.5625 -4.96875 C 117.101562 0.550781 110.394531 3.3125 103.4375 3.3125 C 98 3.3125 93.582031 1.613281 90.1875 -1.78125 C 86.789062 -5.175781 85.09375 -9.507812 85.09375 -14.78125 C 85.09375 -19.363281 86.453125 -26.238281 89.171875 -35.40625 C 90.359375 -39.65625 91.882812 -44.453125 93.75 -49.796875 C 95.625 -55.148438 97.363281 -60.375 98.96875 -65.46875 C 100.582031 -70.570312 101.984375 -75.203125 103.171875 -79.359375 C 104.367188 -83.515625 104.96875 -86.445312 104.96875 -88.15625 C 104.96875 -89.851562 104.457031 -91.335938 103.4375 -92.609375 C 102.414062 -93.878906 101.054688 -94.515625 99.359375 -94.515625 C 92.734375 -94.515625 86.273438 -90.222656 79.984375 -81.640625 C 73.703125 -73.066406 67.675781 -60.546875 61.90625 -44.078125 L 46.625 0 L 19.875 0 C 24.625 -18 28.441406 -32.050781 31.328125 -42.15625 C 34.222656 -52.269531 36.265625 -59.617188 37.453125 -64.203125 C 38.804688 -68.953125 39.78125 -73.195312 40.375 -76.9375 C 40.96875 -80.675781 41.265625 -83.648438 41.265625 -85.859375 C 41.265625 -87.890625 40.835938 -89.582031 39.984375 -90.9375 C 39.140625 -92.300781 37.957031 -92.984375 36.4375 -92.984375 C 34.050781 -92.984375 31.414062 -91.113281 28.53125 -87.375 C 25.644531 -83.644531 22.585938 -78.382812 19.359375 -71.59375 L 14.265625 -73.625 C 24.285156 -97.738281 37.023438 -109.796875 52.484375 -109.796875 C 63.347656 -109.796875 68.78125 -103.851562 68.78125 -91.96875 Z M 68.78125 -91.96875 "/></g></g></g></g></g><g transform="matrix(1, 0, 0, 1, 190, 409)"><g clip-path="url(#b5fb5c93bc)"><g clip-path="url(#03771d799f)"><path stroke-linecap="butt" transform="matrix(0.429644, -0.000000000000000213, 0.000000000000000213, 0.429644, 320.427737, 0.555768)" fill="none" stroke-linejoin="miter" d="M 0.00453905 5.49804 L 247.438569 5.49804 " stroke="#c9a97a" stroke-width="11" stroke-opacity="1" stroke-miterlimit="4"/></g><g clip-path="url(#795acce009)"><path stroke-linecap="butt" transform="matrix(0.429644, -0.000000000000000373, 0.000000000000000373, 0.429644, 3.26227, 164.05113)" fill="none" stroke-linejoin="miter" d="M -0.00128311 5.499742 L 247.432747 5.499742 " stroke="#c9a97a" stroke-width="11" stroke-opacity="1" stroke-miterlimit="4"/></g></g></g></svg>