<svg xmlns="http://www.w3.org/2000/svg" xmlns:xlink="http://www.w3.org/1999/xlink" viewBox="532 372 344 87" version="1.0"><defs><g/><clipPath id="seen-7e393da94f"><path d="M 288 71 L 333.960938 71 L 333.960938 130 L 288 130 Z M 288 71 " clip-rule="nonzero"/></clipPath><clipPath id="seen-792606f4a3"><path d="M 0.359375 21 L 21 21 L 21 44 L 0.359375 44 Z M 0.359375 21 " clip-rule="nonzero"/></clipPath><clipPath id="seen-0ea0e9d4b4"><rect x="0" width="46" y="0" height="59"/></clipPath><clipPath id="seen-41d4f477c0"><rect x="0" width="334" y="0" height="188"/></clipPath></defs><g transform="matrix(1, 0, 0, 1, 537, 314)"><g clip-path="url(#seen-41d4f477c0)"><g fill="#ffffff" fill-opacity="1"><g transform="translate(3.120448, 136.681595)"><g><path d="M 26.9375 1.578125 C 22.101562 1.578125 17.675781 0.648438 13.65625 -1.203125 C 9.539062 -2.972656 6.238281 -5.472656 3.75 -8.703125 C 0.6875 -12.566406 -0.519531 -16.875 0.125 -21.625 L 14.859375 -21.625 C 13.972656 -19.9375 14.253906 -18.328125 15.703125 -16.796875 C 18.203125 -14.054688 21.945312 -12.6875 26.9375 -12.6875 C 30.238281 -12.6875 33.21875 -13.410156 35.875 -14.859375 C 38.539062 -16.222656 39.875 -17.796875 39.875 -19.578125 C 39.875 -20.859375 39.144531 -22.101562 37.6875 -23.3125 C 36.082031 -24.757812 33.988281 -25.726562 31.40625 -26.21875 L 31.53125 -26.21875 L 19.8125 -28.15625 L 19.6875 -28.15625 C 13.96875 -29.363281 9.257812 -31.898438 5.5625 -35.765625 C 1.851562 -39.546875 0 -43.8125 0 -48.5625 C 0 -54.601562 2.617188 -59.675781 7.859375 -63.78125 C 13.003906 -67.894531 19.363281 -69.953125 26.9375 -69.953125 C 31.851562 -69.953125 36.40625 -69.066406 40.59375 -67.296875 C 44.78125 -65.441406 48.082031 -62.90625 50.5 -59.6875 C 53.320312 -55.894531 54.488281 -51.546875 54 -46.640625 L 39.625 -46.640625 C 40.03125 -48.566406 39.671875 -50.21875 38.546875 -51.59375 C 35.960938 -54.320312 32.09375 -55.6875 26.9375 -55.6875 C 23.71875 -55.6875 20.820312 -54.960938 18.25 -53.515625 C 15.582031 -51.984375 14.25 -50.332031 14.25 -48.5625 C 14.25 -47.28125 15.097656 -45.953125 16.796875 -44.578125 C 18.484375 -43.210938 20.414062 -42.367188 22.59375 -42.046875 L 34.3125 -40.109375 C 40.113281 -38.898438 44.863281 -36.441406 48.5625 -32.734375 C 52.269531 -29.035156 54.125 -24.648438 54.125 -19.578125 C 54.125 -13.535156 51.546875 -8.5 46.390625 -4.46875 C 41.160156 -0.4375 34.675781 1.578125 26.9375 1.578125 Z M 26.9375 1.578125 "/></g></g></g><g fill="#ffffff" fill-opacity="1"><g transform="translate(62.079564, 136.681595)"><g><path d="M 35.515625 1.578125 C 29.234375 1.578125 23.316406 0.00390625 17.765625 -3.140625 C 12.203125 -6.359375 7.851562 -10.707031 4.71875 -16.1875 C 1.570312 -21.664062 0 -27.585938 0 -33.953125 C 0 -40.316406 1.570312 -46.273438 4.71875 -51.828125 C 7.9375 -57.304688 12.285156 -61.65625 17.765625 -64.875 C 23.234375 -68.09375 29.148438 -69.703125 35.515625 -69.703125 C 41.316406 -69.703125 46.675781 -68.414062 51.59375 -65.84375 C 56.5 -63.34375 60.6875 -59.835938 64.15625 -55.328125 C 67.53125 -50.578125 69.703125 -45.582031 70.671875 -40.34375 C 71.640625 -35.4375 71.597656 -31.210938 70.546875 -27.671875 L 15.21875 -27.671875 C 16.59375 -23.554688 18.890625 -20.171875 22.109375 -17.515625 C 26.054688 -14.296875 30.523438 -12.6875 35.515625 -12.6875 C 38.578125 -12.6875 41.359375 -13.25 43.859375 -14.375 C 46.835938 -15.582031 49.253906 -17.273438 51.109375 -19.453125 L 68.140625 -19.453125 C 64.992188 -12.609375 60.117188 -7.210938 53.515625 -3.265625 C 48.117188 -0.0351562 42.117188 1.578125 35.515625 1.578125 Z M 15.828125 -42.046875 L 55.453125 -42.046875 C 54.003906 -45.671875 51.75 -48.648438 48.6875 -50.984375 C 44.738281 -53.878906 40.347656 -55.328125 35.515625 -55.328125 C 30.679688 -55.328125 26.332031 -53.878906 22.46875 -50.984375 C 19.332031 -48.398438 17.117188 -45.421875 15.828125 -42.046875 Z M 15.828125 -42.046875 "/></g></g></g><g fill="#ffffff" fill-opacity="1"><g transform="translate(138.074017, 136.681595)"><g><path d="M 35.515625 1.578125 C 29.234375 1.578125 23.316406 0.00390625 17.765625 -3.140625 C 12.203125 -6.359375 7.851562 -10.707031 4.71875 -16.1875 C 1.570312 -21.664062 0 -27.585938 0 -33.953125 C 0 -40.316406 1.570312 -46.273438 4.71875 -51.828125 C 7.9375 -57.304688 12.285156 -61.65625 17.765625 -64.875 C 23.234375 -68.09375 29.148438 -69.703125 35.515625 -69.703125 C 41.316406 -69.703125 46.675781 -68.414062 51.59375 -65.84375 C 56.5 -63.34375 60.6875 -59.835938 64.15625 -55.328125 C 67.53125 -50.578125 69.703125 -45.582031 70.671875 -40.34375 C 71.640625 -35.4375 71.597656 -31.210938 70.546875 -27.671875 L 15.21875 -27.671875 C 16.59375 -23.554688 18.890625 -20.171875 22.109375 -17.515625 C 26.054688 -14.296875 30.523438 -12.6875 35.515625 -12.6875 C 38.578125 -12.6875 41.359375 -13.25 43.859375 -14.375 C 46.835938 -15.582031 49.253906 -17.273438 51.109375 -19.453125 L 68.140625 -19.453125 C 64.992188 -12.609375 60.117188 -7.210938 53.515625 -3.265625 C 48.117188 -0.0351562 42.117188 1.578125 35.515625 1.578125 Z M 15.828125 -42.046875 L 55.453125 -42.046875 C 54.003906 -45.671875 51.75 -48.648438 48.6875 -50.984375 C 44.738281 -53.878906 40.347656 -55.328125 35.515625 -55.328125 C 30.679688 -55.328125 26.332031 -53.878906 22.46875 -50.984375 C 19.332031 -48.398438 17.117188 -45.421875 15.828125 -42.046875 Z M 15.828125 -42.046875 "/></g></g></g><g fill="#ffffff" fill-opacity="1"><g transform="translate(214.068471, 136.681595)"><g><path d="M 0 0 L 0 -68.75 L 14.25 -68.75 L 14.25 -64.515625 C 19.488281 -68.054688 25.289062 -69.828125 31.65625 -69.828125 C 37.289062 -69.828125 42.601562 -68.414062 47.59375 -65.59375 C 52.59375 -62.695312 56.460938 -58.832031 59.203125 -54 C 62.015625 -49.25 63.421875 -43.9375 63.421875 -38.0625 L 63.421875 0 L 49.171875 0 L 49.171875 -38.0625 C 49.171875 -41.039062 48.40625 -43.9375 46.875 -46.75 C 45.257812 -49.570312 43.125 -51.75 40.46875 -53.28125 C 37.976562 -54.8125 35.039062 -55.578125 31.65625 -55.578125 C 28.351562 -55.578125 25.453125 -54.8125 22.953125 -53.28125 C 20.128906 -51.507812 18.035156 -49.414062 16.671875 -47 C 15.054688 -44.019531 14.25 -41.039062 14.25 -38.0625 L 14.25 0 Z M 0 0 "/></g></g></g><g clip-path="url(#seen-7e393da94f)"><g transform="matrix(1, 0, 0, 1, 288, 71)"><g clip-path="url(#seen-0ea0e9d4b4)"><g clip-path="url(#seen-792606f4a3)"><g fill="#de2bc2" fill-opacity="1"><g transform="translate(0.457523, 43.028309)"><g><path d="M 10.296875 0.484375 C 8.453125 0.484375 6.726562 -0.0078125 5.125 -1 C 3.601562 -1.9375 2.347656 -3.273438 1.359375 -5.015625 C 0.453125 -6.660156 0 -8.484375 0 -10.484375 C 0 -12.472656 0.453125 -14.289062 1.359375 -15.9375 C 2.328125 -17.664062 3.582031 -19.019531 5.125 -20 C 6.75 -20.988281 8.472656 -21.484375 10.296875 -21.484375 C 12.242188 -21.484375 14.023438 -20.953125 15.640625 -19.890625 C 17.515625 -18.679688 18.894531 -16.945312 19.78125 -14.6875 L 14.875 -14.6875 C 14.28125 -15.445312 13.566406 -16.0625 12.734375 -16.53125 C 11.972656 -16.925781 11.160156 -17.125 10.296875 -17.125 C 9.265625 -17.125 8.28125 -16.828125 7.34375 -16.234375 C 6.40625 -15.671875 5.679688 -14.875 5.171875 -13.84375 C 4.628906 -12.851562 4.359375 -11.734375 4.359375 -10.484375 C 4.359375 -9.253906 4.628906 -8.144531 5.171875 -7.15625 C 5.753906 -6.101562 6.488281 -5.304688 7.375 -4.765625 C 8.164062 -4.171875 9.140625 -3.875 10.296875 -3.875 C 11.109375 -3.875 11.910156 -4.054688 12.703125 -4.421875 C 13.554688 -4.867188 14.253906 -5.445312 14.796875 -6.15625 L 19.78125 -6.15625 C 18.84375 -3.945312 17.453125 -2.265625 15.609375 -1.109375 C 14.035156 -0.046875 12.265625 0.484375 10.296875 0.484375 Z M 10.296875 0.484375 "/></g></g></g></g><g fill="#de2bc2" fill-opacity="1"><g transform="translate(21.71764, 43.028309)"><g><path d="M 10.84375 0.484375 C 7.84375 0.484375 5.285156 -0.585938 3.171875 -2.734375 C 1.054688 -4.847656 0 -7.394531 0 -10.375 C 0 -13.375 1.066406 -15.941406 3.203125 -18.078125 C 5.328125 -20.222656 7.875 -21.296875 10.84375 -21.296875 C 13.851562 -21.296875 16.425781 -20.222656 18.5625 -18.078125 C 20.675781 -15.941406 21.734375 -13.375 21.734375 -10.375 C 21.734375 -7.375 20.675781 -4.8125 18.5625 -2.6875 C 16.445312 -0.570312 13.875 0.484375 10.84375 0.484375 Z M 10.84375 -3.875 C 12.664062 -3.875 14.21875 -4.515625 15.5 -5.796875 C 16.78125 -7.046875 17.421875 -8.570312 17.421875 -10.375 C 17.421875 -12.164062 16.78125 -13.710938 15.5 -15.015625 C 14.21875 -16.296875 12.664062 -16.9375 10.84375 -16.9375 C 9.03125 -16.9375 7.492188 -16.3125 6.234375 -15.0625 C 4.984375 -13.78125 4.359375 -12.21875 4.359375 -10.375 C 4.359375 -8.570312 4.984375 -7.046875 6.234375 -5.796875 C 7.492188 -4.515625 9.03125 -3.875 10.84375 -3.875 Z M 10.84375 -3.875 "/></g></g></g></g></g></g></g></g></svg>